<svg xmlns="http://www.w3.org/2000/svg" viewBox="0 0 895.87 317.42"><defs><style>.cls-1{fill:#fff;}.cls-2{fill:none;stroke:#fff;stroke-miterlimit:10;stroke-width:6px;}</style></defs><title>footerLogo_1</title><g id="Layer_2" data-name="Layer 2"><g id="Layer_1-2" data-name="Layer 1"><path class="cls-1" d="M253.71,84.5v112h67v25.4H223.5V84.5Z"/><path class="cls-1" d="M301.62,84.5h33.86l32.13,54.26L399.55,84.5h33.67l-51,84.66v52.72H352V168.39Z"/><path class="cls-1" d="M509.41,84.5a86,86,0,0,1,17.9,1.73,38.78,38.78,0,0,1,13.85,5.68,26.44,26.44,0,0,1,9,10.49q3.17,6.54,3.17,16.16,0,10.38-4.71,17.31t-14,11.36q12.69,3.65,19,12.79t6.25,22a37.85,37.85,0,0,1-4,18,35,35,0,0,1-10.87,12.41,48,48,0,0,1-15.59,7.12,70.14,70.14,0,0,1-18,2.31H444.76V84.5Zm-3.85,55.61q8.08,0,13.28-3.85T524,123.75a16,16,0,0,0-1.73-7.89,12.85,12.85,0,0,0-4.61-4.81,19.64,19.64,0,0,0-6.64-2.4,44,44,0,0,0-7.8-.68H475v32.14Zm1.74,58.29a40.12,40.12,0,0,0,8.46-.86,20.79,20.79,0,0,0,7.12-2.89,14.49,14.49,0,0,0,4.91-5.48,19,19,0,0,0,1.82-8.85q0-10.57-6-15.1t-15.78-4.53H475V198.4Z"/><path class="cls-1" d="M610.42,84.5v112h67v25.4H580.21V84.5Z"/><rect class="cls-2" x="3" y="3" width="889.87" height="311.42"/></g></g></svg>